<svg width="25" height="25" viewBox="0 0 25 25" fill="none" xmlns="http://www.w3.org/2000/svg">
<path d="M24.999 9.94514C24.999 6.84288 20.499 1.66674 19.5956 0.661059C19.1526 0.19038 18.4118 0.167941 17.9411 0.611055C17.9239 0.627235 17.9072 0.643881 17.8911 0.661059C16.3138 2.43671 14.9061 4.35605 13.6865 6.39397C12.9479 5.49057 12.3797 4.8485 12.1922 4.6383C11.7491 4.16762 11.0084 4.14518 10.5376 4.58829C10.5205 4.60447 10.5038 4.62112 10.4876 4.6383C8.93758 6.39497 7.49917 8.24706 6.18082 10.1837C5.65807 9.30301 5.15243 8.55301 4.87971 8.16097C4.52275 7.64474 3.8149 7.5157 3.29875 7.87266C3.18602 7.95063 3.08834 8.04831 3.01044 8.16097C2.32863 9.19507 -0.000933795 12.7064 -0.000933795 14.4905C-0.0103887 16.5466 1.54893 18.2709 3.59564 18.4677C4.54386 22.7573 8.78989 25.466 13.0795 24.5179C16.7187 23.7135 19.3114 20.4902 19.3172 16.7632C19.3137 16.573 19.2985 16.3832 19.2717 16.195C22.5179 15.9227 25.0105 13.2027 24.999 9.94514ZM3.97637 16.1951C3.03501 16.1951 2.27183 15.432 2.27183 14.4906C2.27183 13.9224 3.05026 12.4054 3.97637 10.894C4.90248 12.4054 5.68091 13.9224 5.68091 14.4906C5.68091 15.432 4.91773 16.1951 3.97637 16.1951ZM11.3627 22.4451C8.71013 22.4305 6.41619 20.593 5.82293 18.0076C7.1311 17.3219 7.95154 15.9676 7.95361 14.4906C7.90913 13.851 7.74733 13.225 7.47633 12.644C7.52188 12.3938 7.62282 12.157 7.77177 11.9508C8.87299 10.2774 10.072 8.67046 11.3627 7.13838C13.8513 10.0816 17.0445 14.5986 17.0445 16.7634C17.0445 19.9012 14.5007 22.4451 11.3627 22.4451ZM18.7491 13.9224H18.6127C17.7014 11.9527 16.5732 10.0908 15.2491 8.37124C15.2703 8.30119 15.3009 8.23427 15.34 8.17235C16.2977 6.39071 17.4404 4.7148 18.7491 3.17239C20.6127 5.44509 22.7263 8.52464 22.7263 9.94507C22.7263 12.1417 20.9456 13.9224 18.7491 13.9224Z" fill="#FE8C4C"/>
<path d="M21.6878 8.63972C21.6795 8.61788 21.6698 8.5965 21.659 8.57586C21.5681 8.37698 21.4658 8.17243 21.3578 7.96789C21.1898 7.70282 20.8388 7.62412 20.5737 7.79211C20.332 7.94525 20.2419 8.25426 20.3635 8.51334C20.4601 8.68945 20.551 8.87129 20.6248 9.04175C20.7358 9.33525 21.0637 9.4832 21.3572 9.37214C21.6507 9.26107 21.7988 8.93322 21.6878 8.63972Z" fill="#FE8C4C"/>
<path d="M20.6305 6.78603C20.1589 6.09283 19.659 5.45649 19.3237 5.04174C19.1381 4.78872 18.7826 4.73399 18.5295 4.91956C18.2765 5.10513 18.2218 5.46068 18.4073 5.71377C18.4185 5.72895 18.4304 5.7436 18.443 5.75765C18.7669 6.15535 19.2442 6.76332 19.6873 7.42244C19.863 7.68291 20.2167 7.75156 20.4771 7.57584C20.7376 7.40013 20.8063 7.0465 20.6305 6.78603Z" fill="#FE8C4C"/>
<path d="M13.0483 20.4138C12.9589 20.1126 12.6422 19.9409 12.3409 20.0303C12.0238 20.1248 11.6946 20.1726 11.3637 20.1723C11.0499 20.1723 10.7955 20.4267 10.7955 20.7405C10.7955 21.0543 11.0499 21.3086 11.3637 21.3086C11.8042 21.3095 12.2425 21.2464 12.6648 21.1211C12.966 21.0318 13.1377 20.7151 13.0483 20.4138Z" fill="#FE8C4C"/>
<path d="M15.7444 15.4679C15.655 15.1667 15.3382 14.9949 15.037 15.0844C14.7358 15.1738 14.5641 15.4905 14.6535 15.7917C15.0075 16.9787 14.6899 18.2642 13.8239 19.1497C13.604 19.3735 13.6071 19.7332 13.8309 19.9532C13.9311 20.0517 14.0642 20.1095 14.2046 20.1156C14.3564 20.115 14.5017 20.0536 14.608 19.9452C15.7734 18.7708 16.2087 17.0559 15.7444 15.4679Z" fill="#FE8C4C"/>
</svg>
