<svg width="12" height="22" viewBox="0 0 12 22" fill="none" xmlns="http://www.w3.org/2000/svg">
<path d="M6.98427 14.2454V7.48181C6.98427 7.21724 6.87917 6.9635 6.69209 6.77642C6.505 6.58934 6.25127 6.48424 5.98669 6.48424C5.72212 6.48424 5.46838 6.58934 5.2813 6.77642C5.09422 6.9635 4.98912 7.21724 4.98912 7.48181V14.2454C4.68758 14.4195 4.43684 14.6694 4.26184 14.9704C4.08683 15.2714 3.99365 15.613 3.99154 15.9612C3.99154 16.4903 4.20175 16.9978 4.57591 17.372C4.95007 17.7461 5.45755 17.9563 5.98669 17.9563C6.51584 17.9563 7.02331 17.7461 7.39748 17.372C7.77164 16.9978 7.98184 16.4903 7.98184 15.9612C7.97974 15.613 7.88656 15.2714 7.71155 14.9704C7.53654 14.6694 7.28581 14.4195 6.98427 14.2454ZM10.4758 11.9709V4.48909C10.4758 3.29851 10.0028 2.15669 9.16096 1.31482C8.31909 0.472956 7.17727 0 5.98669 0C4.79611 0 3.6543 0.472956 2.81243 1.31482C1.97056 2.15669 1.49761 3.29851 1.49761 4.48909V11.9709C0.808126 12.7522 0.334563 13.7 0.12376 14.7204C-0.0870434 15.7409 -0.0277813 16.7988 0.295684 17.7893C0.619149 18.7799 1.19561 19.6688 1.96804 20.3682C2.74048 21.0676 3.68212 21.5532 4.69982 21.7771C5.12258 21.8734 5.5534 21.9302 5.98669 21.9466C7.1445 21.952 8.27903 21.6215 9.25277 20.9951C10.2265 20.3687 10.9977 19.4733 11.4728 18.4175C11.9479 17.3616 12.1066 16.1906 11.9297 15.0464C11.7527 13.9022 11.2477 12.8339 10.4758 11.9709V11.9709ZM8.48063 19.0237C7.68691 19.7275 6.64613 20.0871 5.58725 20.0235C4.52837 19.9599 3.53812 19.4783 2.83436 18.6846C2.13059 17.8909 1.77096 16.8501 1.83456 15.7912C1.89817 14.7323 2.37981 13.7421 3.17353 13.0383C3.26779 12.9459 3.34278 12.8357 3.39415 12.7142C3.44552 12.5926 3.47226 12.462 3.4728 12.33V4.48909C3.4728 3.82765 3.73556 3.19331 4.20326 2.72561C4.67097 2.2579 5.30531 1.99515 5.96674 1.99515C6.62817 1.99515 7.26252 2.2579 7.73022 2.72561C8.19792 3.19331 8.46068 3.82765 8.46068 4.48909V12.4098C8.46123 12.5418 8.48796 12.6724 8.53933 12.794C8.5907 12.9155 8.66569 13.0257 8.75995 13.1181C9.16771 13.512 9.48685 13.9883 9.6961 14.5152C9.90535 15.0422 9.99991 15.6076 9.97348 16.174C9.94705 16.7403 9.80024 17.2945 9.54282 17.7997C9.28541 18.3048 8.9233 18.7493 8.48063 19.1036V19.0237Z" fill="#FE8C4C"/>
</svg>
