<svg width="20" height="21" viewBox="0 0 20 21" fill="none" xmlns="http://www.w3.org/2000/svg">
    <path d="M19.7917 17.9923H1.875V0.227751C1.875 0.102488 1.78125 0 1.66667 0H0.208333C0.09375 0 0 0.102488 0 0.227751V19.8143C0 19.9396 0.09375 20.0421 0.208333 20.0421H19.7917C19.9062 20.0421 20 19.9396 20 19.8143V18.22C20 18.0948 19.9062 17.9923 19.7917 17.9923ZM4.16667 15.7148H5.625C5.73958 15.7148 5.83333 15.6123 5.83333 15.487V11.3875C5.83333 11.2623 5.73958 11.1598 5.625 11.1598H4.16667C4.05208 11.1598 3.95833 11.2623 3.95833 11.3875V15.487C3.95833 15.6123 4.05208 15.7148 4.16667 15.7148ZM8.125 15.7148H9.58333C9.69792 15.7148 9.79167 15.6123 9.79167 15.487V6.37702C9.79167 6.25175 9.69792 6.14927 9.58333 6.14927H8.125C8.01042 6.14927 7.91667 6.25175 7.91667 6.37702V15.487C7.91667 15.6123 8.01042 15.7148 8.125 15.7148ZM12.0833 15.7148H13.5417C13.6562 15.7148 13.75 15.6123 13.75 15.487V8.59759C13.75 8.47232 13.6562 8.36983 13.5417 8.36983H12.0833C11.9687 8.36983 11.875 8.47232 11.875 8.59759V15.487C11.875 15.6123 11.9687 15.7148 12.0833 15.7148ZM16.0417 15.7148H17.5C17.6146 15.7148 17.7083 15.6123 17.7083 15.487V4.09951C17.7083 3.97425 17.6146 3.87176 17.5 3.87176H16.0417C15.9271 3.87176 15.8333 3.97425 15.8333 4.09951V15.487C15.8333 15.6123 15.9271 15.7148 16.0417 15.7148Z"
          fill="#33182A"/>
</svg>
