<svg width="20" height="21" viewBox="0 0 20 21" fill="none" xmlns="http://www.w3.org/2000/svg">
    <path d="M19.7917 18.2867H1.875V0.522184C1.875 0.396921 1.78125 0.294434 1.66667 0.294434H0.208333C0.09375 0.294434 0 0.396921 0 0.522184V20.1087C0 20.234 0.09375 20.3365 0.208333 20.3365H19.7917C19.9062 20.3365 20 20.234 20 20.1087V18.5145C20 18.3892 19.9062 18.2867 19.7917 18.2867ZM4.16667 16.0092H5.625C5.73958 16.0092 5.83333 15.9067 5.83333 15.7815V11.682C5.83333 11.5567 5.73958 11.4542 5.625 11.4542H4.16667C4.05208 11.4542 3.95833 11.5567 3.95833 11.682V15.7815C3.95833 15.9067 4.05208 16.0092 4.16667 16.0092ZM8.125 16.0092H9.58333C9.69792 16.0092 9.79167 15.9067 9.79167 15.7815V6.67145C9.79167 6.54619 9.69792 6.4437 9.58333 6.4437H8.125C8.01042 6.4437 7.91667 6.54619 7.91667 6.67145V15.7815C7.91667 15.9067 8.01042 16.0092 8.125 16.0092ZM12.0833 16.0092H13.5417C13.6562 16.0092 13.75 15.9067 13.75 15.7815V8.89202C13.75 8.76676 13.6562 8.66427 13.5417 8.66427H12.0833C11.9688 8.66427 11.875 8.76676 11.875 8.89202V15.7815C11.875 15.9067 11.9688 16.0092 12.0833 16.0092ZM16.0417 16.0092H17.5C17.6146 16.0092 17.7083 15.9067 17.7083 15.7815V4.39394C17.7083 4.26868 17.6146 4.16619 17.5 4.16619H16.0417C15.9271 4.16619 15.8333 4.26868 15.8333 4.39394V15.7815C15.8333 15.9067 15.9271 16.0092 16.0417 16.0092Z"
          fill="white"/>
</svg>
